<svg xmlns="http://www.w3.org/2000/svg" viewBox="0 0 100 69.7"><path class="svg-permis" d="M28.5 60.3c0-5.2-4.2-9.4-9.4-9.4s-9.4 4.2-9.4 9.4 4.2 9.4 9.4 9.4 9.4-4.2 9.4-9.4zM89.9 60.3c0-5.2-4.2-9.4-9.4-9.4s-9.4 4.2-9.4 9.4 4.2 9.4 9.4 9.4c5.2.1 9.4-4.2 9.4-9.4zM38.3 0H14.9c-1.1 0-2 .9-2 2v32.6c0 1.1.9 2 2 2h23.4c1.1 0 2-.9 2-2V2c0-1.1-.9-2-2-2zM21.4 12.2h9.8c2.6 0 2.6 4 0 4h-9.8c-1.1 0-2-.9-2-2s.9-2 2-2zm0-6h9.8c2.6 0 2.6 4 0 4h-9.8c-2.6 0-2.6-4 0-4zm11.9 15.3l-6.7 8.1c-.7.9-2 .9-2.8.3l-3.6-3c-.8-.7-1-2-.3-2.8s2-1 2.8-.3l2.1 1.7 5.4-6.6c.7-.8 2-1 2.8-.3.8.8 1 2 .3 2.9z"/><path class="svg-car" d="M99.7 46.3c-1.2-6.4-5.1-8.3-13.9-10.4-17.3-4.2-27.2-14.7-42.6-17.3v16c0 2.8-2.2 5-5 5H14.9c-2.8 0-5-2.2-5-5v-15C4.1 22.3 0 28.2 0 35v11c0 4.9 2.7 9.1 6.8 11.3 1.3-5.6 6.3-9.7 12.2-9.7 6.4 0 11.8 4.8 12.6 11.1h36.3c.8-6.2 6.1-11.1 12.6-11.1 6.4 0 11.8 4.8 12.6 11.1 1 0 1.9.2 3.9-1.8 2.4-2.7 3.5-6.7 2.7-10.6z"/></svg>