<svg xmlns="http://www.w3.org/2000/svg" viewBox="0 0 100 100"><path d="M23.7 17.838c-4.2 0-4.7 1.2-4.7 3.3 0 2.6 1.5 3.3 2.2 4.5 1.7 2.9-.3 5-3.6 5.7H5c0 13.3-.1 12.2.4 13.4 1.3 3.4 3.3.8 4.5 0 .9-.6 2.1-1.1 3.7-1.1 4 0 5 2.4 5 6.4 0 2.2-.3 3.7-1.1 4.9-1.6 2-5.3 1.9-7.5.4-1.2-.8-3.1-3.4-4.5 0-.5 1.2-.4.1-.4 13.4 13.9 0 12.3-.2 14 .5.8.3 1.8.8 2.3 1.7.4.8.6 1.5.4 2.2-.4 2.4-2.7 2.6-2.7 5.9 0 2.1.5 3.3 4.7 3.3s4.7-1.2 4.7-3.3c0-2.6-1.5-3.3-2.2-4.5-1.7-3 .4-5 3.8-5.7h12.4v-12.2c-.2-.8-.7-2.3-1.3-2.6-1.4-.8-2 .4-3.5 1.4-2.2 1.5-6 1.6-7.5-.4-1.6-2-1.6-7.7 0-9.7 1.6-2 5.4-1.9 7.5-.4 1.5 1 2.1 2.2 3.5 1.4.6-.4 1.2-1.9 1.3-2.6v-12.2H29.9c-3.4-.7-5.3-2.9-3.6-5.7.7-1.2 2.2-1.9 2.2-4.5-.1-2.3-.6-3.5-4.8-3.5z"/><path d="M43.6 45.338c-.3.8-.8 1.8-1.7 2.3-.8.4-1.5.6-2.2.4-2.4-.4-2.6-2.7-5.9-2.7-2.1 0-3.3.5-3.3 4.7s1.2 4.7 3.3 4.7c3.3 0 3.5-2.3 5.9-2.7 1.7-.3 3.6.7 4.3 4.4v12.4h12.2c.7-.2 2.3-.7 2.6-1.3 1.3-2.2-2.5-2.6-2.5-7.2 0-4 2.4-5 6.4-5 3.9 0 6.4 1 6.4 5 0 3.8-2.5 4.8-2.8 6.2-.2 1.3 1.6 2.1 2.9 2.3h12.2v-12.5c.7-3.5 2.9-5.4 5.7-3.7 1.2.7 1.9 2.2 4.5 2.2 2.1 0 3.3-.5 3.3-4.7s-1.2-4.7-3.3-4.7c-2.6 0-3.3 1.5-4.5 2.2-2.9 1.7-5-.4-5.7-3.6v-12.6H69.3c-.7.2-2.3.7-2.6 1.3-1.3 2.2 2.5 2.6 2.5 7.2 0 4-2.4 5-6.4 5-3.9 0-6.4-1-6.4-5 0-3.8 2.5-4.8 2.8-6.2.2-1.3-1.6-2.1-2.9-2.3H44.1c.1 13.4 0 12.6-.5 13.9z"/></svg>