<svg width="55" height="46" viewBox="0 0 55 46" xmlns="http://www.w3.org/2000/svg" xmlns:sketch="http://www.bohemiancoding.com/sketch/ns"><title>menu</title><desc>Created with Sketch.</desc><g sketch:type="MSShapeGroup" fill="#B6D5DB"><path d="M16.857 4h38v2h-38v-2z"/><path d="M16.857 22h38v2h-38v-2z"/><path d="M16.857 40h38v2h-38v-2z"/><path d="M5.857 0c-2.757 0-5 2.242-5 5 0 2.764 2.243 5 5 5 2.758 0 5-2.236 5-5 0-2.758-2.242-5-5-5"/><path d="M.857 23c0 2.764 2.243 5 5 5 2.758 0 5-2.236 5-5 0-2.758-2.242-5-5-5-2.757 0-5 2.242-5 5z"/><path d="M.857 41c0 2.764 2.243 5 5 5 2.758 0 5-2.236 5-5 0-2.758-2.242-5-5-5-2.757 0-5 2.242-5 5z"/></g></svg>